# Blender v2.92.0 OBJ File: 'shnose.blend'
# www.blender.org
mtllib shnose.mtl
o Cube
v 0.905653 1.000000 1.598720
v 1.000000 -1.000000 1.799634
v 0.905653 1.000000 -0.854868
v 1.000000 -1.000000 -0.854856
v 0.798376 2.181487 1.214002
v 0.798376 2.181487 -0.854909
v 0.280626 3.802016 0.405649
v 0.280626 3.802016 -0.854933
v 1.000000 -2.039828 -0.854848
v 1.000000 -2.039828 1.745162
v 0.513560 -2.842759 -0.854853
v 0.513560 -2.842759 1.529432
v 0.101721 -2.943801 -0.854856
v 0.101721 -2.943801 1.428636
v 0.952827 0.000000 1.753186
v 0.952827 0.000000 -0.854853
v 0.610969 2.991752 -0.854930
v 0.610969 2.991752 0.853902
v 0.827219 -2.441293 1.658247
v 0.827219 -2.779748 -0.854847
v 1.877051 -1.057959 0.770889
v 1.877051 -1.057959 -0.852471
v 1.877051 -2.220546 0.714027
v 1.877051 -2.220546 -0.850159
v 1.704269 -2.678754 -0.848949
v 1.704270 -2.587474 0.682153
v 0.905653 1.000000 0.371926
v 0.798376 2.181487 0.179546
v 0.280626 3.802016 -0.197836
v 0.513560 -2.842759 0.337289
v 0.101721 -2.943801 0.286890
v 0.952827 0.000000 0.449167
v 0.610969 2.991752 -0.000514
v 0.827219 -2.646908 0.318789
v 1.877051 -1.057959 0.400044
v 1.877051 -2.220546 0.372769
v 1.704269 -2.621812 0.291807
v 0.280626 3.802016 0.130713
v -0.905653 1.000000 1.598720
v -1.000000 -1.000000 1.799634
v -0.905653 1.000000 -0.854868
v -1.000000 -1.000000 -0.854856
v -0.798376 2.181487 1.214002
v -0.798376 2.181487 -0.854909
v -0.280626 3.802016 0.405649
v -0.280626 3.802016 -0.854933
v -1.000000 -2.039828 -0.854848
v -1.000000 -2.039828 1.745162
v -0.513560 -2.842759 -0.854853
v -0.513560 -2.842759 1.529432
v -0.101721 -2.943801 -0.854856
v -0.101721 -2.943801 1.428636
v -0.952827 0.000000 1.753186
v -0.952827 0.000000 -0.854853
v -0.610969 2.991752 -0.854930
v -0.610969 2.991752 0.853902
v -0.827219 -2.441293 1.658247
v -0.827219 -2.779748 -0.854847
v 0.000000 -1.000000 -0.854856
v 0.000000 1.000000 1.598898
v 0.000000 1.000000 -0.854868
v 0.000000 -1.000000 1.799634
v 0.000000 2.181487 1.215188
v 0.000000 2.181487 -0.854909
v 0.000000 3.802016 0.406257
v 0.000000 3.802016 -0.854933
v 0.000000 -2.039828 -0.854848
v 0.000000 -2.039828 1.745162
v 0.000000 -2.842759 -0.854849
v 0.000000 -2.842759 1.548983
v 0.000000 -2.943801 -0.854856
v 0.000000 -2.943801 1.429476
v 0.000000 0.000000 1.753186
v 0.000000 0.000000 -0.854853
v 0.000000 2.991752 0.857270
v 0.000000 2.991752 -0.854930
v 0.000000 -2.441293 1.661057
v 0.000000 -2.773194 -0.854846
v -1.877051 -1.057959 0.770889
v -1.877051 -1.057959 -0.852471
v -1.877051 -2.220546 0.714027
v -1.877051 -2.220546 -0.850159
v -1.704269 -2.678754 -0.848949
v -1.704270 -2.587474 0.682153
v -0.905653 1.000000 0.371926
v -0.798376 2.181487 0.179546
v -0.280626 3.802016 -0.197836
v -0.513560 -2.842759 0.337289
v -0.101721 -2.943801 0.286890
v -0.952827 0.000000 0.449167
v -0.610969 2.991752 -0.000514
v -0.827219 -2.646908 0.318789
v 0.000000 -2.943801 0.287310
v 0.000000 3.802016 -0.197532
v -1.877051 -1.057959 0.400044
v -1.877051 -2.220546 0.372769
v -1.704269 -2.621812 0.291807
v -0.280626 3.802016 0.130713
v 0.000000 3.802016 0.131169
vt 0.625000 0.625000
vt 0.625000 0.500000
vt 0.625000 0.500000
vt 0.625000 0.625000
vt 0.500000 0.125000
vt 0.625000 0.125000
vt 0.625000 0.250000
vt 0.500000 0.250000
vt 0.375000 0.500000
vt 0.375000 0.500000
vt 0.375000 0.500000
vt 0.375000 0.500000
vt 0.375000 0.375000
vt 0.375000 0.375000
vt 0.625000 0.375000
vt 0.625000 0.250000
vt 0.625000 0.375000
vt 0.625000 0.375000
vt 0.625000 0.250000
vt 0.625000 0.250000
vt 0.625000 0.375000
vt 0.625000 0.625000
vt 0.625000 0.500000
vt 0.625000 0.500000
vt 0.625000 0.625000
vt 0.375000 0.500000
vt 0.375000 0.500000
vt 0.375000 0.375000
vt 0.375000 0.375000
vt 0.375000 0.125000
vt 0.375000 0.250000
vt 0.375000 0.250000
vt 0.375000 0.125000
vt 0.375000 0.125000
vt 0.375000 0.250000
vt 0.375000 0.250000
vt 0.375000 0.125000
vt 0.375000 0.250000
vt 0.375000 0.125000
vt 0.375000 0.500000
vt 0.375000 0.625000
vt 0.375000 0.625000
vt 0.625000 0.125000
vt 0.625000 0.125000
vt 0.500000 0.500000
vt 0.500000 0.625000
vt 0.375000 0.625000
vt 0.375000 0.500000
vt 0.375000 0.625000
vt 0.375000 0.625000
vt 0.375000 0.500000
vt 0.750000 0.500000
vt 0.875000 0.500000
vt 0.875000 0.625000
vt 0.750000 0.625000
vt 0.625000 0.125000
vt 0.375000 0.250000
vt 0.375000 0.250000
vt 0.375000 0.250000
vt 0.375000 0.375000
vt 0.375000 0.250000
vt 0.125000 0.500000
vt 0.250000 0.500000
vt 0.250000 0.625000
vt 0.125000 0.625000
vt 0.375000 0.375000
vt 0.375000 0.375000
vt 0.500000 0.375000
vt 0.625000 0.500000
vt 0.625000 0.500000
vt 0.500000 0.250000
vt 0.625000 0.250000
vt 0.375000 0.500000
vt 0.375000 0.500000
vt 0.375000 0.500000
vt 0.375000 0.500000
vt 0.375000 0.375000
vt 0.375000 0.375000
vt 0.625000 0.375000
vt 0.625000 0.375000
vt 0.625000 0.250000
vt 0.625000 0.375000
vt 0.625000 0.375000
vt 0.625000 0.250000
vt 0.625000 0.250000
vt 0.625000 0.500000
vt 0.625000 0.500000
vt 0.375000 0.500000
vt 0.375000 0.375000
vt 0.375000 0.375000
vt 0.375000 0.500000
vt 0.375000 0.250000
vt 0.375000 0.250000
vt 0.375000 0.250000
vt 0.375000 0.250000
vt 0.375000 0.250000
vt 0.375000 0.500000
vt 0.500000 0.500000
vt 0.375000 0.500000
vt 0.375000 0.500000
vt 0.750000 0.500000
vt 0.875000 0.500000
vt 0.375000 0.250000
vt 0.375000 0.250000
vt 0.375000 0.250000
vt 0.375000 0.375000
vt 0.375000 0.250000
vt 0.125000 0.500000
vt 0.250000 0.500000
vt 0.375000 0.375000
vt 0.375000 0.375000
vt 0.500000 0.375000
vn 0.0008 0.3093 0.9510
vn 0.0000 -0.0000 -1.0000
vn 0.6588 -0.3952 0.6401
vn 0.9107 -0.4125 0.0194
vn 0.9959 0.0904 0.0000
vn 0.9260 0.3775 0.0000
vn 0.0039 0.4858 0.8740
vn 0.7531 0.6579 0.0000
vn -0.0000 0.0001 -1.0000
vn 0.9743 0.2253 0.0000
vn 0.0030 0.4054 0.9141
vn 0.7591 -0.0329 0.6502
vn 0.0015 -0.2086 0.9780
vn 0.0000 0.0464 0.9989
vn 0.0217 -0.7566 0.6535
vn 0.0159 -0.2930 0.9560
vn 0.0000 -0.0523 0.9986
vn 0.0000 1.0000 0.0000
vn 0.0001 0.1526 0.9883
vn 0.0059 -0.0027 -1.0000
vn 0.0039 -0.0011 -1.0000
vn 0.0724 -0.9940 0.0815
vn 0.7612 0.0659 0.6452
vn 0.0027 0.0001 -1.0000
vn 0.9275 -0.3737 0.0090
vn 1.0000 0.0000 0.0000
vn 0.0000 -1.0000 0.0000
vn 0.2383 -0.9712 0.0000
vn 0.3822 -0.9226 0.0518
vn 0.9989 0.0471 -0.0000
vn 0.0312 -0.9957 0.0876
vn 0.6829 -0.7281 0.0591
vn 0.0041 -0.9884 0.1517
vn -0.0008 0.3093 0.9510
vn -0.6588 -0.3952 0.6401
vn -0.9107 -0.4125 0.0194
vn -0.9959 0.0904 0.0000
vn -0.9260 0.3775 0.0000
vn -0.0039 0.4858 0.8740
vn -0.7531 0.6579 0.0000
vn -0.9743 0.2253 0.0000
vn -0.0030 0.4054 0.9141
vn -0.7591 -0.0329 0.6502
vn -0.0015 -0.2086 0.9780
vn -0.0217 -0.7566 0.6535
vn -0.0159 -0.2930 0.9560
vn -0.0001 0.1526 0.9883
vn -0.0059 -0.0027 -1.0000
vn -0.0039 -0.0011 -1.0000
vn -0.0724 -0.9940 0.0815
vn -0.7612 0.0659 0.6452
vn -0.0027 0.0001 -1.0000
vn -0.9275 -0.3737 0.0090
vn -1.0000 -0.0000 0.0000
vn -0.2383 -0.9712 0.0000
vn -0.3822 -0.9226 0.0518
vn -0.9989 0.0471 -0.0000
vn -0.0312 -0.9957 0.0876
vn -0.6829 -0.7281 0.0591
vn -0.0041 -0.9884 0.1517
usemtl Material
s off
f 60/1/1 1/2/1 5/3/1 63/4/1
f 74/5/2 61/6/2 3/7/2 16/8/2
f 10/9/3 19/10/3 26/11/3 23/12/3
f 26/11/4 37/13/4 36/14/4 23/12/4
f 27/15/5 3/7/5 6/16/5 28/17/5
f 33/18/6 17/19/6 8/20/6 29/21/6
f 75/22/7 18/23/7 7/24/7 65/25/7
f 15/26/8 21/27/8 35/28/8 32/29/8
f 59/30/2 4/31/2 9/32/2 67/33/2
f 78/34/9 20/35/9 11/36/9 69/37/9
f 69/37/9 11/36/9 13/38/9 71/39/9
f 18/23/10 5/3/10 28/17/10 33/18/10
f 59/30/2 74/5/2 16/8/2 4/31/2
f 63/4/11 5/3/11 18/23/11 75/22/11
f 28/17/10 6/16/10 17/19/10 33/18/10
f 67/33/2 9/32/2 20/35/2 78/34/2
f 2/40/12 10/9/12 23/12/12 21/27/12
f 10/9/13 68/41/13 77/42/13 19/10/13
f 6/16/2 64/43/2 76/44/2 17/19/2
f 2/40/14 15/45/14 73/46/14 62/47/14
f 12/48/15 70/49/15 72/50/15 14/51/15
f 19/10/16 77/42/16 70/49/16 12/48/16
f 2/40/17 62/47/17 68/41/17 10/9/17
f 29/52/18 8/53/18 66/54/18 94/55/18
f 3/7/2 61/6/2 64/43/2 6/16/2
f 17/19/2 76/44/2 66/56/2 8/20/2
f 15/45/19 1/2/19 60/1/19 73/46/19
f 20/35/20 9/32/20 24/57/20 25/58/20
f 9/32/21 4/31/21 22/59/21 24/57/21
f 34/60/22 20/35/22 25/58/22 37/13/22
f 35/28/8 22/59/8 16/61/8 32/29/8
f 2/40/23 21/27/23 15/26/23
f 16/61/24 22/59/24 4/31/24
f 24/57/25 36/14/25 37/13/25 25/58/25
f 22/59/26 35/28/26 36/14/26 24/57/26
f 13/62/27 31/63/27 93/64/27 71/65/27
f 11/36/28 30/66/28 31/67/28 13/38/28
f 20/35/29 34/60/29 30/66/29 11/36/29
f 16/8/30 3/7/30 27/15/30 32/68/30
f 15/26/30 32/29/30 27/15/30 1/2/30
f 23/12/26 36/14/26 35/28/26 21/27/26
f 5/3/5 1/2/5 27/15/5 28/17/5
f 7/24/6 18/23/6 33/18/6 29/21/6
f 65/25/18 7/24/18 29/52/18 94/55/18
f 26/11/31 34/60/31 37/13/31
f 72/50/27 93/64/27 31/63/27 14/51/27
f 14/51/28 31/63/28 30/66/28 12/48/28
f 12/48/32 30/66/32 34/60/32 19/10/32
f 34/60/33 26/11/33 19/10/33
f 60/1/34 63/4/34 43/69/34 39/70/34
f 74/5/2 54/71/2 41/72/2 61/6/2
f 48/73/35 81/74/35 84/75/35 57/76/35
f 84/75/36 81/74/36 96/77/36 97/78/36
f 85/79/37 86/80/37 44/81/37 41/72/37
f 91/82/38 87/83/38 46/84/38 55/85/38
f 75/22/39 65/25/39 45/86/39 56/87/39
f 53/88/40 90/89/40 95/90/40 79/91/40
f 59/30/2 67/33/2 47/92/2 42/93/2
f 78/34/9 69/37/9 49/94/9 58/95/9
f 69/37/9 71/39/9 51/96/9 49/94/9
f 56/87/41 91/82/41 86/80/41 43/69/41
f 59/30/2 42/93/2 54/71/2 74/5/2
f 63/4/42 75/22/42 56/87/42 43/69/42
f 86/80/41 91/82/41 55/85/41 44/81/41
f 67/33/2 78/34/2 58/95/2 47/92/2
f 40/97/43 79/91/43 81/74/43 48/73/43
f 48/73/44 57/76/44 77/42/44 68/41/44
f 44/81/2 55/85/2 76/44/2 64/43/2
f 40/97/14 62/47/14 73/46/14 53/98/14
f 50/99/45 52/100/45 72/50/45 70/49/45
f 57/76/46 50/99/46 70/49/46 77/42/46
f 40/97/17 48/73/17 68/41/17 62/47/17
f 87/101/18 94/55/18 66/54/18 46/102/18
f 41/72/2 44/81/2 64/43/2 61/6/2
f 55/85/2 46/84/2 66/56/2 76/44/2
f 53/98/47 73/46/47 60/1/47 39/70/47
f 58/95/48 83/103/48 82/104/48 47/92/48
f 47/92/49 82/104/49 80/105/49 42/93/49
f 92/106/50 97/78/50 83/103/50 58/95/50
f 95/90/40 90/89/40 54/107/40 80/105/40
f 40/97/51 53/88/51 79/91/51
f 54/107/52 42/93/52 80/105/52
f 82/104/53 83/103/53 97/78/53 96/77/53
f 80/105/54 82/104/54 96/77/54 95/90/54
f 51/108/27 71/65/27 93/64/27 89/109/27
f 49/94/55 51/96/55 89/110/55 88/111/55
f 58/95/56 49/94/56 88/111/56 92/106/56
f 54/71/57 90/112/57 85/79/57 41/72/57
f 53/88/57 39/70/57 85/79/57 90/89/57
f 81/74/54 79/91/54 95/90/54 96/77/54
f 43/69/37 86/80/37 85/79/37 39/70/37
f 45/86/38 87/83/38 91/82/38 56/87/38
f 65/25/18 94/55/18 87/101/18 45/86/18
f 84/75/58 97/78/58 92/106/58
f 72/50/27 52/100/27 89/109/27 93/64/27
f 52/100/55 50/99/55 88/111/55 89/109/55
f 50/99/59 57/76/59 92/106/59 88/111/59
f 92/106/60 57/76/60 84/75/60
l 38 7
l 99 65
l 29 38
l 94 99
l 98 45
l 87 98
